<svg width="20" height="20" viewBox="0 0 20 20" fill="none" xmlns="http://www.w3.org/2000/svg">
<path d="M20 17.0733C20 18.6897 18.6963 20 17.0882 20H2.91178C1.30363 20 0 18.6897 0 17.0733V2.92672C0 1.31032 1.30363 0 2.91178 0H17.0882C18.6964 0 20 1.31032 20 2.92672V17.0733Z" fill="#FAAB62"/>
<path d="M19.8971 17.0007C19.8971 18.6005 18.6068 19.8973 17.0152 19.8973H2.98438C1.39277 19.8973 0.102539 18.6005 0.102539 17.0007V2.9994C0.102539 1.39963 1.39282 0.102783 2.98438 0.102783H17.0152C18.6068 0.102783 19.8971 1.39968 19.8971 2.9994V17.0007Z" fill="#F7931E"/>
<path d="M9.98838 2.98901C8.00623 2.98901 6.39941 4.60412 6.39941 6.59639C6.39941 8.58872 8.00623 10.2039 9.98838 10.2039C11.9705 10.2039 13.5774 8.58872 13.5774 6.59639C13.5774 4.60412 11.9705 2.98901 9.98838 2.98901ZM9.98838 8.08771C9.16903 8.08771 8.50478 7.42 8.50478 6.59644C8.50478 5.77289 9.16903 5.10523 9.98838 5.10523C10.8077 5.10523 11.472 5.77289 11.472 6.59644C11.472 7.42 10.8077 8.08771 9.98838 8.08771Z" fill="white"/>
<path d="M11.2552 13.0743C12.6921 12.7801 13.5531 12.0962 13.5986 12.0595C14.0191 11.7206 14.0866 11.1033 13.7494 10.6806C13.4123 10.258 12.7982 10.1901 12.3776 10.529C12.3687 10.5362 11.4504 11.2443 9.93944 11.2453C8.42851 11.2443 7.49077 10.5362 7.48189 10.529C7.06135 10.1901 6.44723 10.258 6.1101 10.6806C5.77292 11.1033 5.84045 11.7206 6.26089 12.0595C6.30707 12.0967 7.20361 12.7984 8.68069 13.0857L6.62211 15.2482C6.248 15.6381 6.25925 16.2591 6.64723 16.6351C6.83659 16.8186 7.08066 16.9098 7.32452 16.9098C7.58019 16.9098 7.83561 16.8094 8.02708 16.6098L9.93949 14.5621L12.0451 16.6231C12.4266 17.0059 13.0443 17.0053 13.4251 16.622C13.8059 16.2386 13.8054 15.6176 13.424 15.2348L11.2552 13.0743Z" fill="white"/>
<path d="M9.93993 11.2452C9.93493 11.2452 9.94483 11.2453 9.93993 11.2455C9.93504 11.2453 9.94493 11.2452 9.93993 11.2452Z" fill="white"/>
</svg>
